. 
  
http://www.torrentday.com/        :     The Hottest Private Tracker On The Net!!! 
http://www.torrentday.com          :     Once you visit it, You can't stop yourself visiting Torrentday everyday ;)


               www . TorrentDay . Com 

(((((((((((((= Enjoy No RAR releases =))))))))))))))))))))


...................................NFO:....................................

.[img]http://img249.imageshack.us/img249/6853/welcometotherileysblura.jpg[/img]

Welcome To The Rileys 2010 BDRip XVID AC3 HQ Hive-CM8



[b]Thx Hive

CM8 Doing It Right The First Time :D

Why download a touched up rip of a rip BRrip
Get the real deal BDRip

Enjoy


Source China BD

Video: 720x384 @bitrate 1730 2pass
Audio: DTS to AC3 5.1 @448
Sample: yes included[/b]
 
http://www.imdb.com/title/tt1183923/


General
Complete name                    :Format                           : AVI
Format/Info                      : Audio Video Interleave
File size                        : 1.69 GiB
Duration                         : 1h 50mn
Overall bit rate                 : 2 189 Kbps
Writing application              : Nandub v1.0rc2
Writing library                  : Nandub build 1853/release

Video
ID                               : 0
Format                           : MPEG-4 Visual
Format profile                   : Advanced Simple@L5
Format settings, BVOP            : Yes
Format settings, QPel            : Yes
Format settings, GMC             : No warppoints
Format settings, Matrix          : Default (H.263)
Muxing mode                      : Packed bitstream
Codec ID                         : XVID
Codec ID/Hint                    : XviD
Duration                         : 1h 50mn
Bit rate                         : 1 732 Kbps
Width                            : 720 pixels
Height                           : 384 pixels
Display aspect ratio             : 1.850
Frame rate                       : 23.976 fps
Color space                      : YUV
Chroma subsampling               : 4:2:0
Bit depth                        : 8 bits
Scan type                        : Progressive
Bits/(Pixel*Frame)               : 0.261
Stream size                      : 1.34 GiB (79%)
Writing library                  : XviD 1.2.1 (UTC 2008-12-04)

Audio
ID                               : 1
Format                           : AC-3
Format/Info                      : Audio Coding 3
Mode extension                   : CM (complete main)
Codec ID                         : 2000
Duration                         : 1h 50mn
Bit rate mode                    : Constant
Bit rate                         : 448 Kbps
Channel(s)                       : 6 channels
Channel positions                : Front: L C R, Side: L R, LFE
Sampling rate                    : 48.0 KHz
Bit depth                        : 16 bits
Stream size                      : 355 MiB (20%)
Alignment                        : Split accross interleaves
Interleave, duration             : 42 ms (1.00 video frame)
Interleave, preload duration     : 500 ms



James Gandolfini ... Doug Riley
Kristen Stewart ... Mallory
Melissa Leo ... Lois Riley
Joe Chrest ... Jerry
Ally Sheedy ... Harriet
Tiffany Coty ... Tara
Eisa Davis ... Vivian
Lance E. Nichols ... Hamilton 'Ham' Watkins
Peggy Walton-Walker ... Brenda
Sharon Landry ... Sharon
Kathy Lamkin ... Charlene
Kerry Cahill ... Waitress
Ken Hixon ... Danny
Elliott Grey ... Randy
David Jensen ... Ed 



On a business trip to New Orleans, a damaged man seeks salvation by
caring for a wayward young woman  



[img]http://img534.imageshack.us/img534/9062/welq.png[/img]
[img]http://img689.imageshack.us/img689/8608/wewewee.png[/img]
[img]http://img713.imageshack.us/img713/5933/wewewewem.png[/img]
[img]http://img829.imageshack.us/img829/4264/wewewewewe.png[/img]
[img]http://img524.imageshack.us/img524/56/wewewewewewe.png[/img]
[img]http://img831.imageshack.us/img831/1692/wewewewewewewe.png[/img]





Greetz

iNK,LUSi,,MAGNET,CLASSiFiED,THC,LEGi0N,IMAGiNE,ViSiON,WBZ,FLAWL3SS,NOVA
Rapeseed,D2U,SAFC,goldadvance,MEMORY100,KaN1vE,Unevano,Pinnz,Wayne,Mr Hive
and all P2P groups 
Great Work Guys :D